<?xml version="1.0" encoding="UTF-8"?>
<!DOCTYPE svg PUBLIC "-//W3C//DTD SVG 1.1//EN" "http://www.w3.org/Graphics/SVG/1.1/DTD/svg11.dtd"><svg version="1.1" viewBox="0 0 21590 27940" preserveAspectRatio="xMidYMid" fill-rule="evenodd" xmlns="http://www.w3.org/2000/svg" xmlns:xlink="http://www.w3.org/1999/xlink"><g visibility="visible" id="Default"><desc>Master slide</desc></g><g visibility="visible" id="page1"><desc>Slide</desc><g><desc>Group</desc><g><desc>Drawing</desc><g><g style="stroke:rgb(0,0,0);fill:none"><path style="fill:none" d="M 7007,13254 L 9364,13254"/></g><g/></g></g><g><desc>Drawing</desc><g><g style="stroke:rgb(0,0,0);fill:none"><path style="fill:none" d="M 7007,13254 L 6932,13262 6860,13287 6797,13327 6743,13380 6703,13444 6678,13516 6670,13591 6678,13666 6703,13737 6743,13800 6797,13854 6860,13894 6932,13919 7007,13928 9364,13928 9439,13919 9510,13894 9574,13854 9627,13800 9668,13737 9692,13666 9701,13591 9692,13516 9668,13444 9627,13380 9574,13327 9510,13287 9439,13262 9364,13254"/></g><g/></g></g><g><desc>Drawing</desc><g><g style="stroke:rgb(0,0,0);fill:none"><path style="fill:none" d="M 7007,14096 L 9364,14096"/></g><g/></g></g><g><desc>Drawing</desc><g><g style="stroke:rgb(0,0,0);fill:none"><path style="fill:none" d="M 7007,14096 L 6932,14104 6860,14129 6797,14170 6743,14223 6703,14287 6678,14358 6670,14433 6678,14508 6703,14579 6743,14643 6797,14696 6860,14737 6932,14761 7007,14770 9364,14770 9439,14761 9510,14737 9574,14696 9627,14643 9668,14579 9692,14508 9701,14433 9692,14358 9668,14287 9627,14223 9574,14170 9510,14129 9439,14104 9364,14096"/></g><g/></g></g><g><desc>Drawing</desc><g><g style="stroke:rgb(0,0,0);fill:none"><path style="fill:none" d="M 7007,14938 L 9364,14938"/></g><g/></g></g><g><desc>Drawing</desc><g><g style="stroke:rgb(0,0,0);fill:none"><path style="fill:none" d="M 7007,14938 L 6932,14947 6860,14971 6797,15012 6743,15065 6703,15129 6678,15200 6670,15275 6678,15350 6703,15421 6743,15485 6797,15538 6860,15579 6932,15603 7007,15612 9364,15612 9439,15603 9510,15579 9574,15538 9627,15485 9668,15421 9692,15350 9701,15275 9692,15200 9668,15129 9627,15065 9574,15012 9510,14971 9439,14947 9364,14938"/></g><g/></g></g><g><desc>Drawing</desc><g><g style="stroke:rgb(0,0,0);fill:none"><path style="fill:none" d="M 9196,12580 L 9186,12436 9155,12295 9105,12160 9035,12033 8949,11918 8847,11816 8731,11729 8605,11660 8470,11610 8329,11579 8185,11569 8042,11579 7901,11610 7766,11660 7639,11729 7523,11816 7422,11918 7336,12033 7267,12160 7216,12295 7186,12436 7175,12580"/></g><g/></g></g><g><desc>Drawing</desc><g><g style="stroke:rgb(0,0,0);fill:none"><path style="fill:none" d="M 8690,12580 L 8681,12481 8652,12386 8605,12299 8543,12223 8466,12160 8379,12112 8284,12084 8185,12074 8087,12084 7992,12112 7905,12160 7828,12223 7766,12299 7719,12386 7690,12481 7680,12580"/></g><g/></g></g><g><desc>Drawing</desc><g><g style="stroke:rgb(0,0,0);fill:none"><path style="fill:none" d="M 9196,12580 L 9196,13254"/></g><g/></g></g><g><desc>Drawing</desc><g><g style="stroke:rgb(0,0,0);fill:none"><path style="fill:none" d="M 8690,12580 L 8690,13254"/></g><g/></g></g><g><desc>Drawing</desc><g><g style="stroke:rgb(0,0,0);fill:none"><path style="fill:none" d="M 7175,12580 L 7175,13254"/></g><g/></g></g><g><desc>Drawing</desc><g><g style="stroke:rgb(0,0,0);fill:none"><path style="fill:none" d="M 7680,12580 L 7680,13254"/></g><g/></g></g><g><desc>Drawing</desc><g><g style="stroke:rgb(0,0,0);fill:none"><path style="fill:none" d="M 5660,11064 L 10711,11064 10711,16118 5660,16118 5660,11064"/></g><g/></g></g></g></g></svg>