<?xml version="1.0" encoding="UTF-8"?>
<!DOCTYPE svg PUBLIC "-//W3C//DTD SVG 1.1//EN" "http://www.w3.org/Graphics/SVG/1.1/DTD/svg11.dtd"><svg version="1.1" viewBox="0 0 21590 27940" preserveAspectRatio="xMidYMid" fill-rule="evenodd" xmlns="http://www.w3.org/2000/svg" xmlns:xlink="http://www.w3.org/1999/xlink"><g visibility="visible" id="Default"><desc>Master slide</desc></g><g visibility="visible" id="page1"><desc>Slide</desc><g><desc>Group</desc><g><desc>Drawing</desc><g><g style="stroke:rgb(0,0,0);fill:none"><path style="fill:none" d="M 12347,5457 L 14705,5457"/></g><g/></g></g><g><desc>Drawing</desc><g><g style="stroke:rgb(0,0,0);fill:none"><path style="fill:none" d="M 12347,5457 L 12295,5461 12244,5473 12195,5493 12149,5521 12110,5555 12075,5596 12047,5640 12027,5689 12015,5741 12011,5794 12015,5846 12027,5898 12047,5946 12075,5991 12110,6031 12149,6066 12195,6094 12244,6114 12295,6126 12347,6131 14705,6131 14758,6126 14809,6114 14858,6094 14903,6066 14943,6031 14978,5991 15006,5946 15025,5898 15038,5846 15042,5794 15038,5741 15025,5689 15006,5640 14978,5596 14943,5555 14903,5521 14858,5493 14809,5473 14758,5461 14705,5457"/></g><g/></g></g><g><desc>Drawing</desc><g><g style="stroke:rgb(0,0,0);fill:none"><path style="fill:none" d="M 12347,6299 L 14705,6299"/></g><g/></g></g><g><desc>Drawing</desc><g><g style="stroke:rgb(0,0,0);fill:none"><path style="fill:none" d="M 12347,6299 L 12295,6303 12244,6316 12195,6335 12149,6363 12110,6397 12075,6438 12047,6483 12027,6532 12015,6583 12011,6636 12015,6688 12027,6740 12047,6789 12075,6834 12110,6874 12149,6909 12195,6936 12244,6956 12295,6969 12347,6973 14705,6973 14758,6969 14809,6956 14858,6936 14903,6909 14943,6874 14978,6834 15006,6789 15025,6740 15038,6688 15042,6636 15038,6583 15025,6532 15006,6483 14978,6438 14943,6397 14903,6363 14858,6335 14809,6316 14758,6303 14705,6299"/></g><g/></g></g><g><desc>Drawing</desc><g><g style="stroke:rgb(0,0,0);fill:none"><path style="fill:none" d="M 12347,7141 L 14705,7141"/></g><g/></g></g><g><desc>Drawing</desc><g><g style="stroke:rgb(0,0,0);fill:none"><path style="fill:none" d="M 12347,7141 L 12295,7145 12244,7158 12195,7178 12149,7206 12110,7240 12075,7281 12047,7325 12027,7374 12015,7426 12011,7478 12015,7531 12027,7582 12047,7631 12075,7676 12110,7716 12149,7751 12195,7778 12244,7798 12295,7811 12347,7815 14705,7815 14758,7811 14809,7798 14858,7778 14903,7751 14943,7716 14978,7676 15006,7631 15025,7582 15038,7531 15042,7478 15038,7426 15025,7374 15006,7325 14978,7281 14943,7240 14903,7206 14858,7178 14809,7158 14758,7145 14705,7141"/></g><g/></g></g><g><desc>Drawing</desc><g><g style="stroke:rgb(0,0,0);fill:none"><path style="fill:none" d="M 16052,4783 L 16048,4695 16036,4608 16018,4521 15991,4437 15957,4356 15916,4277 15870,4203 15816,4133 15756,4068 15691,4009 15621,3954 15547,3907 15469,3867 15387,3832 15303,3806 15218,3788 15130,3775 15042,3772 14954,3775 14866,3788 14780,3806 14696,3832 14615,3867 14537,3907 14463,3954 14392,4009 14327,4068 14268,4133 14214,4203 14167,4277 14126,4356 14092,4437 14066,4521 14047,4608 14035,4695 14032,4783"/></g><g/></g></g><g><desc>Drawing</desc><g><g style="stroke:rgb(0,0,0);fill:none"><path style="fill:none" d="M 15547,4783 L 15543,4717 15530,4652 15509,4589 15479,4530 15443,4475 15399,4426 15349,4382 15294,4345 15235,4315 15172,4295 15107,4282 15042,4277 14976,4282 14911,4295 14849,4315 14789,4345 14735,4382 14685,4426 14641,4475 14604,4530 14575,4589 14554,4652 14541,4717 14537,4783"/></g><g/></g></g><g><desc>Drawing</desc><g><g style="stroke:rgb(0,0,0);fill:none"><path style="fill:none" d="M 14032,4783 L 14032,5457"/></g><g/></g></g><g><desc>Drawing</desc><g><g style="stroke:rgb(0,0,0);fill:none"><path style="fill:none" d="M 14537,4783 L 14537,5457"/></g><g/></g></g><g><desc>Drawing</desc><g><g style="stroke:rgb(0,0,0);fill:none"><path style="fill:none" d="M 16052,4783 L 16052,5457"/></g><g/></g></g><g><desc>Drawing</desc><g><g style="stroke:rgb(0,0,0);fill:none"><path style="fill:none" d="M 15547,4783 L 15547,5457 15570,5501 15601,5539 15638,5572 15680,5598 15726,5615 15775,5624 15824,5624 15873,5615 15919,5598 15962,5572 15999,5539 16029,5501 16052,5457"/></g><g/></g></g><g><desc>Drawing</desc><g><g style="stroke:rgb(0,0,0);fill:none"><path style="fill:none" d="M 11505,3267 L 16557,3267 16557,8321 11505,8321 11505,3267"/></g><g/></g></g></g></g></svg>